HIERARCHY
ROOT hips
{
  OFFSET 0 10.6860622 2.3727825e-15
  CHANNELS 6 Xposition Yposition Zposition Yrotation Xrotation Zrotation
  JOINT leftUpperLeg
  {
    OFFSET 0.6642549969 -0.9402397400000004 0
    CHANNELS 3 Yrotation Xrotation Zrotation
    JOINT leftLowerLeg
    {
      OFFSET 0 -3.997221335632195 0
      CHANNELS 3 Yrotation Xrotation Zrotation
      JOINT leftFoot
      {
        OFFSET -0.13777839790000004 -4.6145792000000005 -0.22186036399999998
        CHANNELS 3 Yrotation Xrotation Zrotation
        JOINT leftToes
        {
          OFFSET -0.03777410834999995 -0.9130806927000008 0.85230013
          CHANNELS 3 Yrotation Xrotation Zrotation
          End Site
          {
            OFFSET -0.03777410834999995 -0.9130806927000008 0.85230013
          }
        }
      }
    }
  }
  JOINT rightUpperLeg
  {
    OFFSET -0.6642778626 -0.9402397400000004 0
    CHANNELS 3 Yrotation Xrotation Zrotation
    JOINT rightLowerLeg
    {
      OFFSET 0 -3.997221452859387 0
      CHANNELS 3 Yrotation Xrotation Zrotation
      JOINT rightFoot
      {
        OFFSET 0.1377926176 -4.6145792000000005 -0.22185782299999995
        CHANNELS 3 Yrotation Xrotation Zrotation
        JOINT rightToes
        {
          OFFSET 0.037780746850000047 -0.9130806927000008 0.85230167
          CHANNELS 3 Yrotation Xrotation Zrotation
          End Site
          {
            OFFSET 0.037780746850000047 -0.9130806927000008 0.85230167
          }
        }
      }
    }
  }
  JOINT spine
  {
    OFFSET 0 0.13988381660000015 0
    CHANNELS 3 Yrotation Xrotation Zrotation
    JOINT chest
    {
      OFFSET 0 0.6191039003973773 0
      CHANNELS 3 Yrotation Xrotation Zrotation
      JOINT upperChest
      {
        OFFSET 0 0.9855186130586943 0
        CHANNELS 3 Yrotation Xrotation Zrotation
        JOINT leftShoulder
        {
          OFFSET 0.1807663869 1.5087829790000005 0
          CHANNELS 3 Yrotation Xrotation Zrotation
          JOINT leftUpperArm
          {
            OFFSET 0.5985063006419806 0 0
            CHANNELS 3 Yrotation Xrotation Zrotation
            JOINT leftLowerArm
            {
              OFFSET 2.2993332369501065 0 0
              CHANNELS 3 Yrotation Xrotation Zrotation
              JOINT leftHand
              {
                OFFSET 2.395047042602395 0 0
                CHANNELS 3 Yrotation Xrotation Zrotation
                JOINT leftIndexProximal
                {
                  OFFSET 0.5766295810000004 0.04556643899499946 0.17265095988184
                  CHANNELS 3 Yrotation Xrotation Zrotation
                  JOINT leftIndexIntermediate
                  {
                    OFFSET 0.2957229000000008 -0.019352197700001517 -0.007932640616999987
                    CHANNELS 3 Yrotation Xrotation Zrotation
                    JOINT leftIndexDistal
                    {
                      OFFSET 0.19008243099999922 -0.012484908149998475 -0.002786250786000012
                      CHANNELS 3 Yrotation Xrotation Zrotation
                      End Site
                      {
                        OFFSET 0.19008243099999922 -0.012484908149998475 -0.002786250786000012
                      }
                    }
                  }
                }
                JOINT leftMiddleProximal
                {
                  OFFSET 0.5834975091000001 0.0524350405149987 0.02204081888183999
                  CHANNELS 3 Yrotation Xrotation Zrotation
                  JOINT leftMiddleIntermediate
                  {
                    OFFSET 0.33880573540000003 -0.019871473270000717 -0.00000971183179999946
                    CHANNELS 3 Yrotation Xrotation Zrotation
                    JOINT leftMiddleDistal
                    {
                      OFFSET 0.20676022730000088 -0.012221336379999448 0.0001471936708000235
                      CHANNELS 3 Yrotation Xrotation Zrotation
                      End Site
                      {
                        OFFSET 0.20676022730000088 -0.012221336379999448 0.0001471936708000235
                      }
                    }
                  }
                }
                JOINT leftLittleProximal
                {
                  OFFSET 0.5344154683999995 -0.012880921405001189 -0.24414037221816004
                  CHANNELS 3 Yrotation Xrotation Zrotation
                  JOINT leftLittleIntermediate
                  {
                    OFFSET 0.21758961730000093 -0.011650919939999227 0.011893592810000034
                    CHANNELS 3 Yrotation Xrotation Zrotation
                    JOINT leftLittleDistal
                    {
                      OFFSET 0.1475273964999999 -0.008152365682999818 0.006001092492999946
                      CHANNELS 3 Yrotation Xrotation Zrotation
                      End Site
                      {
                        OFFSET 0.1475273964999999 -0.008152365682999818 0.006001092492999946
                      }
                    }
                  }
                }
                JOINT leftRingProximal
                {
                  OFFSET 0.5799399463000003 0.026911854694997794 -0.12150566991816003
                  CHANNELS 3 Yrotation Xrotation Zrotation
                  JOINT leftRingIntermediate
                  {
                    OFFSET 0.26167887460000006 -0.013480186499999602 0.010996293000000053
                    CHANNELS 3 Yrotation Xrotation Zrotation
                    JOINT leftRingDistal
                    {
                      OFFSET 0.17667108799999987 -0.008990287899999228 0.0055541023999999065
                      CHANNELS 3 Yrotation Xrotation Zrotation
                      End Site
                      {
                        OFFSET 0.17667108799999987 -0.008990287899999228 0.0055541023999999065
                      }
                    }
                  }
                }
                JOINT leftThumbProximal
                {
                  OFFSET 0.11018806699999972 -0.09448718900500053 0.17047963138184
                  CHANNELS 3 Yrotation Xrotation Zrotation
                  JOINT leftThumbIntermediate
                  {
                    OFFSET 0.31062601459999983 -0.08126270900000132 0.15443142000000007
                    CHANNELS 3 Yrotation Xrotation Zrotation
                    JOINT leftThumbDistal
                    {
                      OFFSET 0.21627175790000086 -0.08833193599999878 0.018771167799999988
                      CHANNELS 3 Yrotation Xrotation Zrotation
                      End Site
                      {
                        OFFSET 0.21627175790000086 -0.08833193599999878 0.018771167799999988
                      }
                    }
                  }
                }
              }
            }
          }
        }
        JOINT neck
        {
          OFFSET 0 1.5463305265074576 0
          CHANNELS 3 Yrotation Xrotation Zrotation
          JOINT head
          {
            OFFSET 0 0.8456443600000344 0
            CHANNELS 3 Yrotation Xrotation Zrotation
            JOINT leftEye
            {
              OFFSET 0.30408573140000006 0.5104519199999995 0.1276382305
              CHANNELS 3 Yrotation Xrotation Zrotation
              End Site
              {
                OFFSET 0.30408573140000006 0.5104519199999995 0.1276382305
              }
            }
            JOINT rightEye
            {
              OFFSET -0.30409491089999996 0.5104519199999995 0.1276379445
              CHANNELS 3 Yrotation Xrotation Zrotation
              End Site
              {
                OFFSET -0.30409491089999996 0.5104519199999995 0.1276379445
              }
            }
            JOINT jaw
            {
              OFFSET -3.155239131000001e-7 -0.11984121820000082 0.60178107
              CHANNELS 3 Yrotation Xrotation Zrotation
              End Site
              {
                OFFSET -3.155239131000001e-7 -0.11984121820000082 0.60178107
              }
            }
          }
        }
        JOINT rightShoulder
        {
          OFFSET -0.1807303465 1.5087829790000005 0
          CHANNELS 3 Yrotation Xrotation Zrotation
          JOINT rightUpperArm
          {
            OFFSET -0.5985063796536958 0 0
            CHANNELS 3 Yrotation Xrotation Zrotation
            JOINT rightLowerArm
            {
              OFFSET -2.2993322059002854 0 0
              CHANNELS 3 Yrotation Xrotation Zrotation
              JOINT rightHand
              {
                OFFSET -2.395045314457259 0 0
                CHANNELS 3 Yrotation Xrotation Zrotation
                JOINT rightIndexProximal
                {
                  OFFSET -0.5764487688300002 0.0441371204405987 0.17361932004999997
                  CHANNELS 3 Yrotation Xrotation Zrotation
                  JOINT rightIndexIntermediate
                  {
                    OFFSET -0.29573011380000047 -0.01934826376999843 -0.007698921482999974
                    CHANNELS 3 Yrotation Xrotation Zrotation
                    JOINT rightIndexDistal
                    {
                      OFFSET -0.19008373999999884 -0.012503266380000655 -0.0026365778999999897
                      CHANNELS 3 Yrotation Xrotation Zrotation
                      End Site
                      {
                        OFFSET -0.19008373999999884 -0.012503266380000655 -0.0026365778999999897
                      }
                    }
                  }
                }
                JOINT rightMiddleProximal
                {
                  OFFSET -0.5834852037300005 0.05211639405060153 0.02307162440000001
                  CHANNELS 3 Yrotation Xrotation Zrotation
                  JOINT rightMiddleIntermediate
                  {
                    OFFSET -0.33880114510000003 -0.019952774050000954 0.0002455003561999819
                    CHANNELS 3 Yrotation Xrotation Zrotation
                    JOINT rightMiddleDistal
                    {
                      OFFSET -0.20675694929999955 -0.012273788999999091 0.00030209124000002766
                      CHANNELS 3 Yrotation Xrotation Zrotation
                      End Site
                      {
                        OFFSET -0.20675694929999955 -0.012273788999999091 0.00030209124000002766
                      }
                    }
                  }
                }
                JOINT rightLittleProximal
                {
                  OFFSET -0.5346811737299992 -0.011214256288399227 -0.24363941305000003
                  CHANNELS 3 Yrotation Xrotation Zrotation
                  JOINT rightLittleIntermediate
                  {
                    OFFSET -0.21757715980000092 -0.011771559690000988 0.01201554387
                    CHANNELS 3 Yrotation Xrotation Zrotation
                    JOINT rightLittleDistal
                    {
                      OFFSET -0.1475201849000004 -0.00822055339600003 0.006082065407000015
                      CHANNELS 3 Yrotation Xrotation Zrotation
                      End Site
                      {
                        OFFSET -0.1475201849000004 -0.00822055339600003 0.006082065407000015
                      }
                    }
                  }
                }
                JOINT rightRingProximal
                {
                  OFFSET -0.5800810755299999 0.027657985680600072 -0.12066365025000003
                  CHANNELS 3 Yrotation Xrotation Zrotation
                  JOINT rightRingIntermediate
                  {
                    OFFSET -0.26166445029999974 -0.013623118409999302 0.011164098990000045
                    CHANNELS 3 Yrotation Xrotation Zrotation
                    JOINT rightRingDistal
                    {
                      OFFSET -0.17666387530000027 -0.009072900100000503 0.005668185599999959
                      CHANNELS 3 Yrotation Xrotation Zrotation
                      End Site
                      {
                        OFFSET -0.17666387530000027 -0.009072900100000503 0.005668185599999959
                      }
                    }
                  }
                }
                JOINT rightThumbProximal
                {
                  OFFSET -0.10997596379000074 -0.09577489355940072 0.16989765924999997
                  CHANNELS 3 Yrotation Xrotation Zrotation
                  JOINT rightThumbIntermediate
                  {
                    OFFSET -0.31036620999999986 -0.08229339117999834 0.15440884469999996
                    CHANNELS 3 Yrotation Xrotation Zrotation
                    JOINT rightThumbDistal
                    {
                      OFFSET -0.21631306399999906 -0.08825326400000111 0.018656797720000014
                      CHANNELS 3 Yrotation Xrotation Zrotation
                      End Site
                      {
                        OFFSET -0.21631306399999906 -0.08825326400000111 0.018656797720000014
                      }
                    }
                  }
                }
              }
            }
          }
        }
      }
    }
  }
}
MOTION
Frames: 9
Frame Time: 0.03333333333333333
5.366740723532839 -10.290889708852934 0 0 -90 0 -25.060411453256744 5.418029164884804 2.8952538222017217 0.21173008985335762 1.7748058079577722 0.20247962076914958 3.4468637042561703 -5.697899942590383 10.755116997448132 0 0 0 28.64194405200734 -33.04086934206372 -46.12358440345167 -140.63037046992 81.18893443399533 -138.68408238275805 52.21904266061932 46.47743844828842 16.038235545123214 0 0 0 -0.14605692918024293 27.653223168564164 -0.18596021206087354 -0.6607540521044778 22.2509533045567 -0.04179430960184852 0 0 0 8.937049279388376 2.5288921679246825 -7.432627124748516 7.234479937021093 28.141763195455297 -68.42183717284733 -71.07111932629971 33.87383504017828 3.6765797401216935 -7.715441429266201 21.457972476005413 -1.137637026330238 0 0 0 0 0 0 0 0 0 0 0 0 0 0 0 0 0 0 0 0 0 0 0 0 0 0 0 0 0 0 0 0 0 0 0 0 0 0 0 0 0 0 0 0 0 0 32.52667392937385 0 0 13.997003403894341 0 0 0 0 0 0 0 0 0 0 5.2030808803005675 -6.631966767997877 -0.3605363383612897 37.39457794751387 -5.241055819728864 62.51292281589021 62.30614366941302 -35.58217761426734 22.029053726581726 -9.065145590249273 -1.2821153620934815 -30.766206462557964 0 0 0 0 0 0 0 0 0 0 0 0 0 0 0 0 0 0 0 0 0 0 0 0 0 0 0 0 0 0 0 0 0 0 0 0 0 0 0 0 0 0 0 0 0
5.366740723532839 -10.290889708852934 0 0 -90 0 -25.060413007000026 5.418029164884804 2.8952536080741065 0.21173008985335762 1.7748058079577722 0.20247962076914958 3.4468637042561703 -5.697899942590383 10.755116997448132 0 0 0 29.207899620147042 -32.614485904197615 -45.6192883448412 -140.63037046992 81.18893443399533 -138.68408238275805 52.11950633981641 45.89544118668103 16.854490065752533 0 0 0 -0.1446903662315741 27.29942681826593 -0.18655668128869726 -0.6643195167436184 21.688855314425894 -0.057341511475939806 0 0 0 9.152770935036358 2.7219525544990932 -6.894220099557039 7.212140945068895 28.233899456921815 -68.8292561558988 -71.32570673843638 33.88596176012413 3.4497853792348425 -7.474384881867047 21.767632799766265 -1.7499320969438974 0 0 0 0 0 0 0 0 0 0 0 0 0 0 0 0 0 0 0 0 0 0 0 0 0 0 0 0 0 0 0 0 0 0 0 0 0 0 0 0 0 0 0 0 0 0 31.670653225403495 0 0 13.426051862690656 0 0 0 0 0 0 0 0 0 0 5.402275770027026 -6.131050774309167 0.08999251583162587 37.360779151627824 -5.250115588402518 62.25297650786032 61.06766314409301 -35.50901977592952 22.397357653003468 -9.18807447397726 -1.5846554284589605 -30.33758248407278 0 0 0 0 0 0 0 0 0 0 0 0 0 0 0 0 0 0 0 0 0 0 0 0 0 0 0 0 0 0 0 0 0 0 0 0 0 0 0 0 0 0 0 0 0
5.366740723532839 -10.290889708852934 0 0 -90 0 -25.060411453256744 5.418029164884804 2.8952538222017217 0.21173008985335762 1.7748058079577722 0.20247962076914958 3.4468637042561703 -5.697899942590383 10.755116997448132 0 0 0 29.776172245528965 -32.19191099610536 -45.11190908789776 -140.63037046992 81.18893443399533 -138.68408238275805 52.0090708892718 45.31386655084636 17.66457770465814 0 0 0 -0.1433248842478131 26.945587924201593 -0.18716103967506803 -0.6677092663070485 21.126593460547703 -0.0727957830762619 0 0 0 9.370407707058979 2.913040037407766 -6.354820966832415 7.189027738488882 28.325917482891484 -69.23714659215193 -71.58040848369251 33.89725909557512 3.2228848775478833 -7.236252561090945 22.079864511439105 -2.3625147646172757 0 0 0 0 0 0 0 0 0 0 0 0 0 0 0 0 0 0 0 0 0 0 0 0 0 0 0 0 0 0 0 0 0 0 0 0 0 0 0 0 0 0 0 0 0 0 30.814072571963244 0 0 12.854930690500396 0 0 0 0 0 0 0 0 0 0 5.605337820523697 -5.631472120447295 0.5420766971575979 37.32701875978423 -5.259328102907906 61.993014836041645 59.8296567571961 -35.42931878585098 22.763652779385666 -9.313318717754614 -1.8863465915219322 -29.908130634481793 0 0 0 0 0 0 0 0 0 0 0 0 0 0 0 0 0 0 0 0 0 0 0 0 0 0 0 0 0 0 0 0 0 0 0 0 0 0 0 0 0 0 0 0 0
5.366740723532839 -10.290889708852934 0 0 -90 0 -25.060411453256744 5.418029164884804 2.8952538222017217 0.21173008985335762 1.7748058079577722 0.20247962076914958 3.4468637042561703 -5.697899942590383 10.755116997448132 0 0 0 30.34669308442396 -31.77327756046352 -44.60152556096953 -140.63037046992 81.18893443399533 -138.68408238275805 51.88808553053032 44.7329358337849 18.468762416546713 0 0 0 -0.14195923281672954 26.591727828209432 -0.18777281866114182 -0.67092459576733 20.56419055665379 -0.08816079905611046 0 0 0 9.589936106873541 3.102124135291995 -5.814456131339318 7.165151200097876 28.41779584768321 -69.64547939188286 -71.83519746880798 33.90771025781058 2.995886707147769 -7.001092829849659 22.394581234522516 -2.975355021949893 0 0 0 0 0 0 0 0 0 0 0 0 0 0 0 0 0 0 0 0 0 0 0 0 0 0 0 0 0 0 0 0 0 0 0 0 0 0 0 0 0 0 0 0 0 0 29.957008376899566 0 0 12.283669269189772 0 0 0 0 0 0 0 0 0 0 5.812267524880575 -5.133312284186243 0.9957417279680432 37.29329465789791 -5.26868136671411 61.73302610497419 58.592477654932495 -35.3431232195362 23.12771340415519 -9.440872559874574 -2.187157082328973 -29.477849286442723 0 0 0 0 0 0 0 0 0 0 0 0 0 0 0 0 0 0 0 0 0 0 0 0 0 0 0 0 0 0 0 0 0 0 0 0 0 0 0 0 0 0 0 0 0
5.366740723532839 -10.290889708852934 0 0 -90 0 -25.060413007000026 5.418028307279638 2.895254036329337 0.21173008985335762 1.7748058079577722 0.20247962076914958 3.4468637042561703 -5.697899942590383 10.755116997448132 0 0 0 30.919389874864684 -31.35870977226281 -44.08822240308905 -140.63037046992 81.18893443399533 -138.68408238275805 51.75684663272435 44.15285648145956 19.26725325964929 0 0 0 -0.1405943705051161 26.237823773976874 -0.18839255624650053 -0.6739689611952191 20.00167969146521 -0.10344007291944819 0 0 0 9.81133282278069 3.2891723000593203 -5.273151456211202 7.140510692147621 28.50952859499536 -70.05423706520797 -72.09006021277486 33.917327281986864 2.7688082361625206 -6.768969735500338 22.711740807263027 -3.5884358125015416 0 0 0 0 0 0 0 0 0 0 0 0 0 0 0 0 0 0 0 0 0 0 0 0 0 0 0 0 0 0 0 0 0 0 0 0 0 0 0 0 0 0 0 0 0 0 29.099559417821553 0 0 11.71229475896506 0 0 0 0 0 0 0 0 0 0 6.023060675941465 -4.636645805205111 1.4510169392344128 37.25962746187532 -5.278204538335663 61.47303680080756 57.356515290424454 -35.25047039304892 23.489240638830385 -9.570734783367172 -2.4870517590270182 -29.046724860051174 0 0 0 0 0 0 0 0 0 0 0 0 0 0 0 0 0 0 0 0 0 0 0 0 0 0 0 0 0 0 0 0 0 0 0 0 0 0 0 0 0 0 0 0 0
5.366740723532839 -10.290889708852934 0 0 -90 0 -25.060411453256744 5.418027878477056 2.8952533939464913 0.21173008985335762 1.7748058079577722 0.20247962076914958 3.4468637042561703 -5.697899942590383 10.755116997448132 0 0 0 31.494196026028987 -30.948339264277028 -43.57210409795301 -140.63037046992 81.18893443399533 -138.68408238275805 51.615640312463164 43.573827738254245 20.060256978287395 0 0 0 -0.13922797696008787 25.883906376026854 -0.18901922954392922 -0.6768433725272828 19.439085966751676 -0.11863517368031169 0 0 0 10.034567163801988 3.4741522678933454 -4.730931895450142 7.115099792135971 28.601111690857284 -70.46343250904687 -72.34502227441456 33.926109885953274 2.541644157409074 -6.539935641763282 23.031271550954656 -4.201732902581818 0 0 0 0 0 0 0 0 0 0 0 0 0 0 0 0 0 0 0 0 0 0 0 0 0 0 0 0 0 0 0 0 0 0 0 0 0 0 0 0 0 0 0 0 0 0 28.241817052592385 0 0 11.140831284779031 0 0 0 0 0 0 0 0 0 0 6.237715944116009 -4.14155107052189 1.9079262533958594 37.22598413926499 -5.287870617042009 61.21304610868031 56.122079372444325 -35.15142814533167 23.8480173888731 -9.702901923261539 -2.786000856685997 -28.6147637509785 0 0 0 0 0 0 0 0 0 0 0 0 0 0 0 0 0 0 0 0 0 0 0 0 0 0 0 0 0 0 0 0 0 0 0 0 0 0 0 0 0 0 0 0 0
5.366740723532839 -10.290889708852934 0 0 -90 0 -25.060413007000026 5.418029164884804 2.8952536080741065 0.21173008985335762 1.7748058079577722 0.20247962076914958 3.4468637042561703 -5.697899942590383 10.755116997448132 0 0 0 32.07102025343823 -30.54229713705086 -43.053230559224964 -140.63037046992 81.18893443399533 -138.68408238275805 51.464786952188426 42.99605996523953 20.847983436790184 0 0 0 -0.1378610139421886 25.529977449714178 -0.18965347593715984 -0.6795518928181862 18.876442911013775 -0.1337508595640172 0 0 0 10.25961676871135 3.657033343610505 -4.187826373360238 7.08892170610812 28.692541085385255 -70.87305222929957 -72.60003334435054 33.93404546335952 2.3144104492183217 -6.3140458888374225 23.353097939174422 -4.815225344078504 0 0 0 0 0 0 0 0 0 0 0 0 0 0 0 0 0 0 0 0 0 0 0 0 0 0 0 0 0 0 0 0 0 0 0 0 0 0 0 0 0 0 0 0 0 0 27.38388883660233 0 0 10.569313893637183 0 0 0 0 0 0 0 0 0 0 6.456227725041004 -3.6481013763404375 2.366493697668532 37.19238661055044 -5.297686469286468 60.953045479709125 54.889546919909364 -35.04606539485991 24.20376642937823 -9.83736801952132 -3.083970153456824 -28.181952365666813 0 0 0 0 0 0 0 0 0 0 0 0 0 0 0 0 0 0 0 0 0 0 0 0 0 0 0 0 0 0 0 0 0 0 0 0 0 0 0 0 0 0 0 0 0
5.366740723532839 -10.290889708852934 0 0 -90 0 -25.060411453256744 5.418029164884804 2.8952538222017217 0.21173008985335762 1.7748058079577722 0.20247962076914958 3.4468637042561703 -5.697899942590383 10.755116997448132 0 0 0 32.649802463484356 -30.14070617385216 -42.53171318361363 -140.63037046992 81.18893443399533 -138.68408238275805 51.30454984140709 42.41975587187441 21.630615471296718 0 0 0 -0.13649447872057313 25.17604817980901 -0.19029592963971512 -0.682093339302331 18.313768986887016 -0.14878875964294233 0 0 0 10.48645203091576 3.837785119766448 -3.643860311405297 7.061969996592756 28.783801023059787 -71.28310369673096 -72.85511182267709 33.94114201056059 2.0871169638472473 -6.091356978946701 23.677166624472463 -5.428894696139121 0 0 0 0 0 0 0 0 0 0 0 0 0 0 0 0 0 0 0 0 0 0 0 0 0 0 0 0 0 0 0 0 0 0 0 0 0 0 0 0 0 0 0 0 0 0 26.52585806716851 0 0 9.997767678601152 0 0 0 0 0 0 0 0 0 0 6.6785947195432565 -3.156380176353009 2.826745689278144 37.158836914063954 -5.307658533364289 60.69304452334618 53.659268747800745 -34.93444789723295 24.55626371677934 -9.974130985199443 -3.3809297237094698 -27.74830330371844 0 0 0 0 0 0 0 0 0 0 0 0 0 0 0 0 0 0 0 0 0 0 0 0 0 0 0 0 0 0 0 0 0 0 0 0 0 0 0 0 0 0 0 0 0
5.366740723532839 -10.290889708852934 0 0 -90 0 -25.060413007000026 5.418028307279638 2.895254036329337 0.21173008985335762 1.7748058079577722 0.20247962076914958 3.4468637042561703 -5.697899942590383 10.755116997448132 0 0 0 33.23044394645068 -29.743688972018237 -42.007636425580706 -140.63037046992 81.18893443399533 -138.68408238275805 51.135217142955355 41.84510654618278 22.408330153403686 0 0 0 -0.1351283092726398 24.822103241186326 -0.19094560500283528 -0.6844735266234838 17.751096555187 -0.1637531486496908 0 0 0 10.715047361816488 4.01637983196008 -3.0990661384221228 7.034248834331978 28.87490104099223 -71.69356449301061 -73.11025110455589 33.94740343465197 1.8597666827336843 -5.87191997045289 24.00340182581013 -6.042720792712156 0 0 0 0 0 0 0 0 0 0 0 0 0 0 0 0 0 0 0 0 0 0 0 0 0 0 0 0 0 0 0 0 0 0 0 0 0 0 0 0 0 0 0 0 0 0 25.667834202119895 0 0 9.426220020349835 0 0 0 0 0 0 0 0 0 0 6.904809883972157 -2.666460172354384 3.2887029081605954 37.1253370818465 -5.317784673487652 60.4330499850185 52.43154873313155 -34.81666315653692 24.905275190722644 -10.113188215844822 -3.676846451199783 -27.313806317647717 0 0 0 0 0 0 0 0 0 0 0 0 0 0 0 0 0 0 0 0 0 0 0 0 0 0 0 0 0 0 0 0 0 0 0 0 0 0 0 0 0 0 0 0 0
